<?xml version="1.0" encoding="utf-8"?>
<!-- Generator: Adobe Illustrator 27.5.0, SVG Export Plug-In . SVG Version: 6.00 Build 0)  -->
<svg version="1.1" id="Layer_1" xmlns="http://www.w3.org/2000/svg" xmlns:xlink="http://www.w3.org/1999/xlink" x="0px" y="0px"
	 viewBox="0 0 4000 4000" style="enable-background:new 0 0 4000 4000;" xml:space="preserve">
<g>
	<rect style="fill-rule:evenodd;clip-rule:evenodd;fill:#FFFFFF;" width="4000" height="4000"/>
	<path style="fill:#231916;" d="M2658.698,2332.538c75.958-150.088,114.346-313.688,115.097-477.439
		c0.775-169.11-38.58-338.422-118.129-493.217l16.729-8.621c80.94,157.502,120.982,329.797,120.192,501.912
		c-0.744,162.277-37.788,324.369-111.06,473.74c22.914-0.289,45.417,9.253,61.209,27.152c2.647,3,5.037,6.158,7.169,9.445
		c86.837-105.534,147.326-227.953,179.042-357.401c33.147-135.288,34.89-278.289,2.47-417.753l18.351-4.2
		c33.08,142.309,31.295,288.262-2.543,426.375c-33.072,134.978-96.751,262.44-188.395,371.677
		c6.824,20.887,4.94,44.182-6.263,64.182c-16.667,29.739-50.304,45.705-83.882,39.809
		c-23.297,145.033-105.777,235.372-247.447,271.011c-103.778,98.795-204.917,209.264-303.417,331.406
		c-16.522,0.929-31.776-8.857-37.804-24.272c-6.034-15.408-1.475-32.95,11.29-43.482c127.858-111.978,229.493-217.046,304.89-315.2
		c68.44-153.607,137.174-251.801,206.209-294.583c-1.665-34.046,18.364-65.432,49.944-78.269
		C2654.447,2333.957,2656.566,2333.203,2658.698,2332.538"/>
	<g>
		<defs>
			<path id="SVGID_1_" d="M1625.409,2412.943c-254.3-8.285-555.687,78.998-589.991,372.271
				c-109.699,439.94,809.154,505.115,1154.511,37.601C2103.319,2583.574,1879.708,2421.223,1625.409,2412.943"/>
		</defs>
		<clipPath id="SVGID_00000109021185241367361080000003202334397161650334_">
			<use xlink:href="#SVGID_1_"  style="overflow:visible;"/>
		</clipPath>
		
			<linearGradient id="SVGID_00000178917989291113937130000005202743389404147111_" gradientUnits="userSpaceOnUse" x1="1122.059" y1="2909.5652" x2="2387.8193" y2="2729.2656">
			<stop  offset="0" style="stop-color:#EAD40C"/>
			<stop  offset="1" style="stop-color:#FF00E9"/>
		</linearGradient>
		
			<rect x="925.719" y="2404.658" style="clip-path:url(#SVGID_00000109021185241367361080000003202334397161650334_);fill:url(#SVGID_00000178917989291113937130000005202743389404147111_);" width="1264.211" height="885.671"/>
	</g>
	<g>
		<defs>
			<path id="SVGID_00000039091422040930106050000002527429593170558882_" d="M1535.573,2277.532
				c420.197,150.584,638.316,332.345,654.356,545.283c342.542-288.944,474.329-757.517,332.614-1182.652
				c-141.713-425.137-524.531-886.39-975.691-746.544c-255.486,135.147-416.218,399.572-418.578,688.588
				C1125.921,1871.228,1282.326,2138.233,1535.573,2277.532"/>
		</defs>
		<clipPath id="SVGID_00000132061243102752367990000011558806076418930573_">
			<use xlink:href="#SVGID_00000039091422040930106050000002527429593170558882_"  style="overflow:visible;"/>
		</clipPath>
		
			<linearGradient id="SVGID_00000107548946827759568420000008894661594033420684_" gradientUnits="userSpaceOnUse" x1="1530.1693" y1="565.6661" x2="2058.8301" y2="2336.8892">
			<stop  offset="0" style="stop-color:#1EF8FC"/>
			<stop  offset="1" style="stop-color:#E14FD0"/>
		</linearGradient>
		
			<rect x="1125.921" y="753.773" style="clip-path:url(#SVGID_00000132061243102752367990000011558806076418930573_);fill:url(#SVGID_00000107548946827759568420000008894661594033420684_);" width="1538.337" height="2069.042"/>
	</g>
	<defs>
		<filter id="Adobe_OpacityMaskFilter" filterUnits="userSpaceOnUse" x="1405.375" y="868.108" width="1173.383" height="1954.707">
			<feColorMatrix  type="matrix" values="1 0 0 0 0  0 1 0 0 0  0 0 1 0 0  0 0 0 1 0"/>
		</filter>
	</defs>
	
		<mask maskUnits="userSpaceOnUse" x="1405.375" y="868.108" width="1173.383" height="1954.707" id="SVGID_00000179610806413876375150000004238073247947189927_">
		<g style="filter:url(#Adobe_OpacityMaskFilter);">
			
				<linearGradient id="SVGID_00000065784487382397367090000017053048814605609122_" gradientUnits="userSpaceOnUse" x1="-6127.7222" y1="5910.0981" x2="-5316.7134" y2="6895.5801" gradientTransform="matrix(1 0 0 1 7583.6768 -4716.0835)">
				<stop  offset="0" style="stop-color:#FFFFFF"/>
				<stop  offset="1" style="stop-color:#000000"/>
			</linearGradient>
			
				<rect x="1405.375" y="868.107" style="fill:url(#SVGID_00000065784487382397367090000017053048814605609122_);" width="1173.384" height="1954.707"/>
		</g>
	</mask>
	
		<path style="mask:url(#SVGID_00000179610806413876375150000004238073247947189927_);fill-rule:evenodd;clip-rule:evenodd;fill:#39D4FF;" d="
		M1405.375,989.436c384.974,87.16,704.826,353.6,860.116,716.488s127.191,778.226-75.562,1116.891
		c342.542-288.944,474.329-757.517,332.614-1182.652c-141.713-425.137-524.531-886.39-975.691-746.544
		C1495.728,920.661,1448.399,952.879,1405.375,989.436"/>
	<defs>
		
			<filter id="Adobe_OpacityMaskFilter_00000129188611134765851630000004524803283210620316_" filterUnits="userSpaceOnUse" x="1026.384" y="2589.234" width="1163.546" height="556.163">
			<feColorMatrix  type="matrix" values="1 0 0 0 0  0 1 0 0 0  0 0 1 0 0  0 0 0 1 0"/>
		</filter>
	</defs>
	
		<mask maskUnits="userSpaceOnUse" x="1026.384" y="2589.234" width="1163.546" height="556.163" id="SVGID_00000125577772859210080410000005471019209586767006_">
		<g style="filter:url(#Adobe_OpacityMaskFilter_00000129188611134765851630000004524803283210620316_);">
			
				<linearGradient id="SVGID_00000049189944260980254810000003345017252036724671_" gradientUnits="userSpaceOnUse" x1="-6543.1313" y1="7171.2852" x2="-5208.7451" y2="7642.8047" gradientTransform="matrix(1 0 0 1 7408.0532 -4566.5996)">
				<stop  offset="0" style="stop-color:#FFFFFF"/>
				<stop  offset="1" style="stop-color:#000000"/>
			</linearGradient>
			
				<rect x="1026.384" y="2589.234" style="fill:url(#SVGID_00000049189944260980254810000003345017252036724671_);" width="1163.546" height="556.163"/>
		</g>
	</mask>
	
		<path style="mask:url(#SVGID_00000125577772859210080410000005471019209586767006_);fill-rule:evenodd;clip-rule:evenodd;fill:#FCE2A6;" d="
		M2189.929,2822.815c-164.121,139.601-383.975,194.637-594.51,148.823c-210.534-45.813-387.642-187.23-478.913-382.404
		c-42.604,51.54-71.747,116.123-81.087,195.979C925.719,3225.154,1844.572,3290.329,2189.929,2822.815"/>
	<defs>
		
			<filter id="Adobe_OpacityMaskFilter_00000134953871801086132340000015555206350111201923_" filterUnits="userSpaceOnUse" x="1128.248" y="868.107" width="1039.229" height="1559.802">
			<feColorMatrix  type="matrix" values="1 0 0 0 0  0 1 0 0 0  0 0 1 0 0  0 0 0 1 0"/>
		</filter>
	</defs>
	
		<mask maskUnits="userSpaceOnUse" x="1128.248" y="868.107" width="1039.229" height="1559.802" id="SVGID_00000166633556683342050230000004199601522965868465_">
		<g style="filter:url(#Adobe_OpacityMaskFilter_00000134953871801086132340000015555206350111201923_);">
			
				<linearGradient id="SVGID_00000133523445460981443340000004736731534307958442_" gradientUnits="userSpaceOnUse" x1="-5260.2104" y1="5383.1997" x2="-6113.6694" y2="7198.5527" gradientTransform="matrix(1 0 0 1 7455.2568 -4899.0815)">
				<stop  offset="0" style="stop-color:#FFFFFF"/>
				<stop  offset="1" style="stop-color:#000000"/>
			</linearGradient>
			
				<rect x="1128.248" y="868.106" style="fill:url(#SVGID_00000133523445460981443340000004736731534307958442_);" width="1039.229" height="1559.803"/>
		</g>
	</mask>
	
		<path style="mask:url(#SVGID_00000166633556683342050230000004199601522965868465_);fill-rule:evenodd;clip-rule:evenodd;fill:#39D4FF;" d="
		M1870.43,2427.909c-234.99-164.368-358.273-450.578-311.298-738.218c32.986-201.986,145.341-376.595,304.582-490.747
		c88.604-63.517,191.724-108.317,303.763-128.7c-172.766-160.713-387.578-248.865-620.625-176.626
		c-51.123,27.042-98.452,59.261-141.477,95.818c-171.993,146.136-275.214,361.586-277.101,592.77
		c-2.353,289.022,154.052,556.027,407.299,695.326C1666.944,2324.61,1778.562,2374.737,1870.43,2427.909"/>
	<defs>
		
			<filter id="Adobe_OpacityMaskFilter_00000067916306411010698190000005207822138393605046_" filterUnits="userSpaceOnUse" x="1026.383" y="2412.413" width="1163.546" height="488.595">
			<feColorMatrix  type="matrix" values="1 0 0 0 0  0 1 0 0 0  0 0 1 0 0  0 0 0 1 0"/>
		</filter>
	</defs>
	
		<mask maskUnits="userSpaceOnUse" x="1026.383" y="2412.413" width="1163.546" height="488.595" id="SVGID_00000047047123865474800800000013795858624930626213_">
		<g style="filter:url(#Adobe_OpacityMaskFilter_00000067916306411010698190000005207822138393605046_);">
			
				<linearGradient id="SVGID_00000115479038045890878670000010541279993098933641_" gradientUnits="userSpaceOnUse" x1="-5374.3594" y1="7247.6616" x2="-6226.3716" y2="7425.6514" gradientTransform="matrix(1 0 0 1 7408.0532 -4679.8491)">
				<stop  offset="0" style="stop-color:#FFFFFF"/>
				<stop  offset="1" style="stop-color:#000000"/>
			</linearGradient>
			
				<rect x="1026.384" y="2412.412" style="fill:url(#SVGID_00000115479038045890878670000010541279993098933641_);" width="1163.546" height="488.596"/>
		</g>
	</mask>
	
		<path style="mask:url(#SVGID_00000047047123865474800800000013795858624930626213_);fill-rule:evenodd;clip-rule:evenodd;fill:#D93C78;" d="
		M1589.49,2552.721c232.658-15.695,457.833,85.595,600.44,270.094c-86.61-239.24-310.222-401.592-564.52-409.872
		c-185.056-6.029-395.047,38.551-508.904,176.291c-42.604,51.54-71.747,116.123-81.087,195.979
		c-10.492,42.071-11.575,80.716-4.654,115.794c42.127-73.014,96.406-136.701,159.537-189.007
		C1301.81,2619.615,1440.936,2562.742,1589.49,2552.721"/>
</g>
</svg>
